HIERARCHY
ROOT SpineBase
{
  OFFSET 0.000000 0.000000 0.000000
  CHANNELS 6 Xposition Yposition Zposition Zrotation Xrotation Yrotation
  JOINT SpineMid
  {
    OFFSET 0.000000 29.169023 0.000000
    CHANNELS 3 Zrotation Xrotation Yrotation
    JOINT SpineShoulder
    {
      OFFSET 0.065371 21.616126 -0.684724
      CHANNELS 3 Zrotation Xrotation Yrotation
      JOINT Neck
      {
        OFFSET 0.043212 7.132791 -0.535573
        CHANNELS 3 Zrotation Xrotation Yrotation
        JOINT Head
        {
          OFFSET 4.617635 12.296770 2.051871
          CHANNELS 3 Zrotation Xrotation Yrotation
          End Site
          {
            OFFSET 0 0 0
          }
        }
      }
      JOINT ShoulderLeft
      {
        OFFSET -11.010936 -2.957500 -11.778707
        CHANNELS 3 Zrotation Xrotation Yrotation
        JOINT ElbowLeft
        {
          OFFSET -5.035676 -19.197782 -5.068877
          CHANNELS 3 Zrotation Xrotation Yrotation
          JOINT WristLeft
          {
            OFFSET 3.543250 -21.446205 -3.808958
            CHANNELS 3 Zrotation Xrotation Yrotation
            JOINT HandLeft
            {
              OFFSET 1.796519 -8.174468 -0.746026
              CHANNELS 3 Zrotation Xrotation Yrotation
              JOINT HandTipLeft
              {
                OFFSET 1.362811 -6.163911 -2.373050
                CHANNELS 3 Zrotation Xrotation Yrotation
                End Site
                {
                  OFFSET 0 0 0
                }
              }
              JOINT ThumbLeft
              {
                OFFSET 2.942395 -2.188474 -2.304538
                CHANNELS 3 Zrotation Xrotation Yrotation
                End Site
                {
                  OFFSET 0 0 0
                }
              }
            }
          }
        }
      }
      JOINT ShoulderRight
      {
        OFFSET 12.057276 -3.323335 12.687540
        CHANNELS 3 Zrotation Xrotation Yrotation
        JOINT ElbowRight
        {
          OFFSET 2.592099 -23.997983 4.260987
          CHANNELS 3 Zrotation Xrotation Yrotation
          JOINT WristRight
          {
            OFFSET -0.236282 -23.520868 -8.618335
            CHANNELS 3 Zrotation Xrotation Yrotation
            JOINT HandRight
            {
              OFFSET -1.558915 -6.830288 -3.139558
              CHANNELS 3 Zrotation Xrotation Yrotation
              JOINT HandTipRight
              {
                OFFSET -1.163513 -6.707159 -0.664013
                CHANNELS 3 Zrotation Xrotation Yrotation
                End Site
                {
                  OFFSET 0 0 0
                }
              }
              JOINT ThumbRight
              {
                OFFSET 1.566733 -2.237891 -0.188386
                CHANNELS 3 Zrotation Xrotation Yrotation
                End Site
                {
                  OFFSET 0 0 0
                }
              }
            }
          }
        }
      }
    }
  }
  JOINT HipLeft
  {
    OFFSET -3.658488 1.250820 -8.058430
    CHANNELS 3 Zrotation Xrotation Yrotation
    JOINT KneeLeft
    {
      OFFSET -14.221710 -35.009561 -0.775234
      CHANNELS 3 Zrotation Xrotation Yrotation
      JOINT AnkleLeft
      {
        OFFSET -6.140322 -31.270138 1.189505
        CHANNELS 3 Zrotation Xrotation Yrotation
        JOINT FootLeft
        {
          OFFSET -0.982296 -6.546808 -8.058327
          CHANNELS 3 Zrotation Xrotation Yrotation
          End Site
          {
            OFFSET 0 0 0
          }
        }
      }
    }
  }
  JOINT HipRight
  {
    OFFSET 4.092533 0.038722 1.210009
    CHANNELS 3 Zrotation Xrotation Yrotation
    JOINT KneeRight
    {
      OFFSET -3.564585 -34.674485 4.828852
      CHANNELS 3 Zrotation Xrotation Yrotation
      JOINT AnkleRight
      {
        OFFSET -0.702455 -32.032355 4.312435
        CHANNELS 3 Zrotation Xrotation Yrotation
        JOINT FootRight
        {
          OFFSET 5.483310 -6.190284 -5.291416
          CHANNELS 3 Zrotation Xrotation Yrotation
          End Site
          {
            OFFSET 0 0 0
          }
        }
      }
    }
  }
}
MOTION
Frames: 8
Frame Time: 0.033333
-19.324302 73.347066 321.517866 -0.000000 0.000000 -50.094893 0.000000 0.000000 50.094893 -0.000000 0.000000 0.000000 -0.000000 0.000000 0.000000 0.000000 0.000000 0.000000 -0.000000 0.000000 0.000000 -0.000000 0.000000 0.000000 -0.000000 0.000000 0.000000 -0.000000 0.000000 0.000000 0.000000 0.000000 0.000000 0.000000 0.000000 0.000000 -0.000000 0.000000 0.000000 -0.000000 0.000000 0.000000 -0.000000 0.000000 0.000000 -0.000000 0.000000 0.000000 0.000000 0.000000 0.000000 0.000000 0.000000 0.000000 0.000000 0.000000 50.094893 -0.000000 0.000000 0.000000 -0.000000 0.000000 0.000000 0.000000 0.000000 0.000000 0.000000 0.000000 50.094893 -0.000000 0.000000 0.000000 -0.000000 0.000000 0.000000 0.000000 0.000000 0.000000
-19.214326 73.325464 321.594227 -0.062172 -0.022292 -49.884024 0.023012 0.061908 49.883999 -0.000000 0.000000 0.000000 -0.000000 0.000000 0.000000 0.000000 0.000000 0.000000 -0.000000 0.000000 0.000000 -0.000000 0.000000 0.000000 -0.000000 0.000000 0.000000 0.632621 -0.627985 -0.379271 0.000000 0.000000 0.000000 0.000000 0.000000 0.000000 -0.467141 1.340209 0.067456 0.465690 -1.340713 -0.056544 -0.000000 0.000000 0.000000 -0.979875 0.391093 0.032451 0.000000 0.000000 0.000000 0.000000 0.000000 0.000000 0.023012 0.061908 49.883999 -0.000000 0.000000 0.000000 -0.000000 0.000000 0.000000 0.000000 0.000000 0.000000 0.023012 0.061908 49.883999 -0.000000 0.000000 0.000000 -1.622350 0.051049 1.450370 0.000000 0.000000 0.000000
-19.115501 73.305555 321.651762 -0.129137 -0.021425 -49.677030 0.067229 0.112320 49.676940 -0.000000 0.000000 0.000000 -0.000000 0.000000 0.000000 0.000000 0.000000 0.000000 -0.000000 0.000000 0.000000 -0.000000 0.000000 0.000000 -0.000000 0.000000 0.000000 1.066675 -1.295755 -0.686675 0.000000 0.000000 0.000000 0.000000 0.000000 0.000000 -0.891300 2.501052 0.132010 0.886382 -2.502798 -0.093190 0.906146 -0.842796 -0.218630 -2.643069 1.581353 0.309674 0.000000 0.000000 0.000000 0.000000 0.000000 0.000000 0.067229 0.112320 49.676940 -0.000000 0.000000 0.000000 -0.000000 0.000000 0.000000 0.000000 0.000000 0.000000 0.067229 0.112320 49.676940 -0.000000 0.000000 0.000000 -3.010468 0.036099 2.667752 0.000000 0.000000 0.000000
-19.027827 73.287340 321.690470 -0.200877 0.002621 -49.474874 0.132519 0.150988 49.474704 -0.000000 0.000000 0.000000 -0.000000 0.000000 0.000000 0.000000 0.000000 0.000000 -0.000000 0.000000 0.000000 -0.000000 0.000000 0.000000 -0.876518 -0.305189 0.010609 2.179080 -1.696415 -0.947546 0.000000 0.000000 0.000000 0.000000 0.000000 0.000000 -1.272005 3.482780 0.190370 1.084735 -4.467207 -0.051192 1.387896 0.018624 -0.426629 -3.484894 2.017481 0.445375 0.000000 0.000000 0.000000 0.000000 0.000000 0.000000 -0.853528 0.126669 49.194328 0.662834 -0.730444 0.286990 0.059925 0.800858 -0.192701 0.000000 0.000000 0.000000 0.132519 0.150988 49.474704 -0.000000 0.000000 0.000000 -4.162411 -0.028797 3.650098 0.000000 0.000000 0.000000
-18.951303 73.270819 321.710353 -0.277369 0.049852 -49.278544 0.218733 0.177692 49.278325 -0.000000 0.000000 0.000000 -0.000000 0.000000 0.000000 0.000000 0.000000 0.000000 -0.000000 0.000000 0.000000 -0.000000 0.000000 0.000000 -1.150674 -0.403083 0.012414 2.492856 -2.339974 -1.128689 0.000000 0.000000 0.000000 0.000000 0.000000 0.000000 -1.608894 4.286242 0.239667 1.376605 -5.499742 -0.046957 1.633229 0.333399 -0.568001 -4.009653 2.220218 0.550475 0.000000 0.000000 0.000000 0.000000 0.000000 0.000000 -0.876931 0.166946 48.964001 0.727515 -0.819354 0.322822 -0.004314 1.043291 -0.149516 0.000000 0.000000 0.000000 0.218733 0.177692 49.278325 -0.000000 0.000000 0.000000 -5.078948 -0.130480 4.397917 0.000000 0.000000 0.000000
-18.885931 73.255991 321.711410 -0.358584 0.120257 -49.089045 0.325714 0.192238 49.088875 -0.000000 0.000000 0.000000 -0.000000 0.000000 0.000000 0.000000 0.000000 0.000000 -0.000000 0.000000 0.000000 -0.000000 0.000000 0.000000 -1.415011 -0.498776 0.013409 2.601357 -3.020724 -1.246756 0.000000 0.000000 0.000000 0.000000 0.000000 0.000000 -1.901707 4.912564 0.277451 1.634945 -6.304569 -0.034938 1.767796 0.803227 -0.706249 -4.217943 2.194948 0.619104 0.000000 0.000000 0.000000 0.000000 0.000000 0.000000 -0.770122 0.203449 48.769812 0.713891 -0.831482 0.328027 -0.110972 1.273639 -0.052554 0.000000 0.000000 0.000000 0.325714 0.192238 49.088875 -0.000000 0.000000 0.000000 -5.762182 -0.258854 4.912944 0.000000 0.000000 0.000000
-18.850704 73.244967 321.676674 -0.445931 0.241557 -48.886849 0.475212 0.177137 48.887055 -0.000000 0.000000 0.000000 -0.828658 -0.094722 0.172714 0.000000 0.000000 0.000000 -0.000000 0.000000 0.000000 -0.000000 0.000000 0.000000 -1.598712 -0.628658 -0.001025 2.178940 -4.764319 -1.436853 0.000000 0.000000 0.000000 0.000000 0.000000 0.000000 -2.161085 5.564354 0.326249 1.989761 -7.511963 -0.061234 1.613269 2.320740 -0.891759 -3.408603 2.074944 0.541624 0.000000 0.000000 0.000000 0.000000 0.000000 0.000000 -0.424343 0.231619 48.613155 0.553901 -0.710891 0.280544 -0.316622 1.532876 0.161229 0.000000 0.000000 0.000000 0.475212 0.177137 48.887055 -0.000000 0.000000 0.000000 -6.189900 -0.364671 5.213984 0.000000 0.000000 0.000000
-18.819861 73.228976 321.619187 -0.531414 0.383667 -48.701144 -0.172235 -0.108841 48.678011 -0.058886 0.131367 -0.037449 -0.256427 -0.837672 0.326235 0.000000 0.000000 0.000000 0.069512 -0.110892 0.129983 0.715754 -0.462500 -0.064956 -1.879249 -0.524667 0.047801 1.634699 -5.876833 -1.431289 0.000000 0.000000 0.000000 0.000000 0.000000 0.000000 -1.588083 5.296291 0.382038 2.235819 -7.987990 -0.049704 1.426485 3.301252 -0.999658 -2.947011 0.533876 0.705065 0.000000 0.000000 0.000000 0.000000 0.000000 0.000000 0.638962 0.146032 48.702109 -0.000000 0.000000 0.000000 -0.537170 1.592970 0.422114 0.000000 0.000000 0.000000 0.638962 0.146032 48.702109 -0.000000 0.000000 0.000000 -6.323258 -0.471160 5.238457 0.000000 0.000000 0.000000
